<mxfile host="Electron" agent="Mozilla/5.0 (Windows NT 10.0; Win64; x64) AppleWebKit/537.36 (KHTML, like Gecko) draw.io/26.0.9 Chrome/128.0.6613.186 Electron/32.2.5 Safari/537.36" version="26.0.9" pages="3">
  <diagram id="qS6SpZiyglDDxvSr4whf" name="UML-Fachklassendiagramm">
    <mxGraphModel dx="1290" dy="638" grid="1" gridSize="10" guides="1" tooltips="1" connect="1" arrows="1" fold="1" page="1" pageScale="1" pageWidth="827" pageHeight="1169" math="0" shadow="0">
      <root>
        <mxCell id="0" />
        <mxCell id="1" parent="0" />
        <mxCell id="lvTw6lGgkBzKPOZ7wGYp-1" value="Customer" style="swimlane;fontStyle=1;align=center;verticalAlign=top;childLayout=stackLayout;horizontal=1;startSize=26;horizontalStack=0;resizeParent=1;resizeParentMax=0;resizeLast=0;collapsible=1;marginBottom=0;whiteSpace=wrap;html=1;" parent="1" vertex="1">
          <mxGeometry x="180" y="330" width="120" height="190" as="geometry" />
        </mxCell>
        <mxCell id="lvTw6lGgkBzKPOZ7wGYp-2" value="# telephone: string" style="text;strokeColor=none;fillColor=none;align=left;verticalAlign=top;spacingLeft=4;spacingRight=4;overflow=hidden;rotatable=0;points=[[0,0.5],[1,0.5]];portConstraint=eastwest;whiteSpace=wrap;html=1;" parent="lvTw6lGgkBzKPOZ7wGYp-1" vertex="1">
          <mxGeometry y="26" width="120" height="26" as="geometry" />
        </mxCell>
        <mxCell id="lvTw6lGgkBzKPOZ7wGYp-6" value="# name: string" style="text;strokeColor=none;fillColor=none;align=left;verticalAlign=top;spacingLeft=4;spacingRight=4;overflow=hidden;rotatable=0;points=[[0,0.5],[1,0.5]];portConstraint=eastwest;whiteSpace=wrap;html=1;" parent="lvTw6lGgkBzKPOZ7wGYp-1" vertex="1">
          <mxGeometry y="52" width="120" height="26" as="geometry" />
        </mxCell>
        <mxCell id="lvTw6lGgkBzKPOZ7wGYp-7" value="# surname: string" style="text;strokeColor=none;fillColor=none;align=left;verticalAlign=top;spacingLeft=4;spacingRight=4;overflow=hidden;rotatable=0;points=[[0,0.5],[1,0.5]];portConstraint=eastwest;whiteSpace=wrap;html=1;" parent="lvTw6lGgkBzKPOZ7wGYp-1" vertex="1">
          <mxGeometry y="78" width="120" height="26" as="geometry" />
        </mxCell>
        <mxCell id="lvTw6lGgkBzKPOZ7wGYp-3" value="" style="line;strokeWidth=1;fillColor=none;align=left;verticalAlign=middle;spacingTop=-1;spacingLeft=3;spacingRight=3;rotatable=0;labelPosition=right;points=[];portConstraint=eastwest;strokeColor=inherit;" parent="lvTw6lGgkBzKPOZ7wGYp-1" vertex="1">
          <mxGeometry y="104" width="120" height="8" as="geometry" />
        </mxCell>
        <mxCell id="lvTw6lGgkBzKPOZ7wGYp-4" value="+ book()" style="text;strokeColor=none;fillColor=none;align=left;verticalAlign=top;spacingLeft=4;spacingRight=4;overflow=hidden;rotatable=0;points=[[0,0.5],[1,0.5]];portConstraint=eastwest;whiteSpace=wrap;html=1;" parent="lvTw6lGgkBzKPOZ7wGYp-1" vertex="1">
          <mxGeometry y="112" width="120" height="26" as="geometry" />
        </mxCell>
        <mxCell id="lvTw6lGgkBzKPOZ7wGYp-8" value="+ reserve()" style="text;strokeColor=none;fillColor=none;align=left;verticalAlign=top;spacingLeft=4;spacingRight=4;overflow=hidden;rotatable=0;points=[[0,0.5],[1,0.5]];portConstraint=eastwest;whiteSpace=wrap;html=1;" parent="lvTw6lGgkBzKPOZ7wGYp-1" vertex="1">
          <mxGeometry y="138" width="120" height="26" as="geometry" />
        </mxCell>
        <mxCell id="lvTw6lGgkBzKPOZ7wGYp-9" value="+ cancel()" style="text;strokeColor=none;fillColor=none;align=left;verticalAlign=top;spacingLeft=4;spacingRight=4;overflow=hidden;rotatable=0;points=[[0,0.5],[1,0.5]];portConstraint=eastwest;whiteSpace=wrap;html=1;" parent="lvTw6lGgkBzKPOZ7wGYp-1" vertex="1">
          <mxGeometry y="164" width="120" height="26" as="geometry" />
        </mxCell>
        <mxCell id="lvTw6lGgkBzKPOZ7wGYp-5" value="&lt;p style=&quot;margin:0px;margin-top:4px;text-align:center;&quot;&gt;&lt;i&gt;&amp;lt;&amp;lt;Abstract&amp;gt;&amp;gt;&lt;/i&gt;&lt;br&gt;&lt;b&gt;Person&lt;/b&gt;&lt;/p&gt;&lt;hr size=&quot;1&quot; style=&quot;border-style:solid;&quot;&gt;&lt;p style=&quot;margin:0px;margin-left:4px;&quot;&gt;# id: int&lt;br&gt;# password: string&lt;/p&gt;&lt;p style=&quot;margin:0px;margin-left:4px;&quot;&gt;# email: string&lt;/p&gt;&lt;p style=&quot;margin:0px;margin-left:4px;&quot;&gt;&lt;br&gt;&lt;/p&gt;" style="verticalAlign=top;align=left;overflow=fill;html=1;whiteSpace=wrap;" parent="1" vertex="1">
          <mxGeometry x="280" y="140" width="170" height="90" as="geometry" />
        </mxCell>
        <mxCell id="lvTw6lGgkBzKPOZ7wGYp-10" value="" style="endArrow=block;endSize=16;endFill=0;html=1;rounded=0;exitX=0.5;exitY=0;exitDx=0;exitDy=0;entryX=0.5;entryY=1;entryDx=0;entryDy=0;" parent="1" source="lvTw6lGgkBzKPOZ7wGYp-1" target="lvTw6lGgkBzKPOZ7wGYp-5" edge="1">
          <mxGeometry width="160" relative="1" as="geometry">
            <mxPoint x="330" y="410" as="sourcePoint" />
            <mxPoint x="490" y="410" as="targetPoint" />
            <Array as="points">
              <mxPoint x="240" y="270" />
              <mxPoint x="365" y="270" />
            </Array>
          </mxGeometry>
        </mxCell>
        <mxCell id="lvTw6lGgkBzKPOZ7wGYp-11" value="Ticket" style="swimlane;fontStyle=1;align=center;verticalAlign=top;childLayout=stackLayout;horizontal=1;startSize=26;horizontalStack=0;resizeParent=1;resizeParentMax=0;resizeLast=0;collapsible=1;marginBottom=0;whiteSpace=wrap;html=1;" parent="1" vertex="1">
          <mxGeometry x="160" y="610" width="160" height="138" as="geometry" />
        </mxCell>
        <mxCell id="lvTw6lGgkBzKPOZ7wGYp-16" value="# id: int" style="text;strokeColor=none;fillColor=none;align=left;verticalAlign=top;spacingLeft=4;spacingRight=4;overflow=hidden;rotatable=0;points=[[0,0.5],[1,0.5]];portConstraint=eastwest;whiteSpace=wrap;html=1;" parent="lvTw6lGgkBzKPOZ7wGYp-11" vertex="1">
          <mxGeometry y="26" width="160" height="26" as="geometry" />
        </mxCell>
        <mxCell id="lvTw6lGgkBzKPOZ7wGYp-12" value="# price: double = 0.0" style="text;strokeColor=none;fillColor=none;align=left;verticalAlign=top;spacingLeft=4;spacingRight=4;overflow=hidden;rotatable=0;points=[[0,0.5],[1,0.5]];portConstraint=eastwest;whiteSpace=wrap;html=1;" parent="lvTw6lGgkBzKPOZ7wGYp-11" vertex="1">
          <mxGeometry y="52" width="160" height="26" as="geometry" />
        </mxCell>
        <mxCell id="lvTw6lGgkBzKPOZ7wGYp-15" value="# isBooked: boolean = false" style="text;strokeColor=none;fillColor=none;align=left;verticalAlign=top;spacingLeft=4;spacingRight=4;overflow=hidden;rotatable=0;points=[[0,0.5],[1,0.5]];portConstraint=eastwest;whiteSpace=wrap;html=1;" parent="lvTw6lGgkBzKPOZ7wGYp-11" vertex="1">
          <mxGeometry y="78" width="160" height="26" as="geometry" />
        </mxCell>
        <mxCell id="lvTw6lGgkBzKPOZ7wGYp-13" value="" style="line;strokeWidth=1;fillColor=none;align=left;verticalAlign=middle;spacingTop=-1;spacingLeft=3;spacingRight=3;rotatable=0;labelPosition=right;points=[];portConstraint=eastwest;strokeColor=inherit;" parent="lvTw6lGgkBzKPOZ7wGYp-11" vertex="1">
          <mxGeometry y="104" width="160" height="8" as="geometry" />
        </mxCell>
        <mxCell id="lvTw6lGgkBzKPOZ7wGYp-14" value="+ isIsBooked(): boolean" style="text;strokeColor=none;fillColor=none;align=left;verticalAlign=top;spacingLeft=4;spacingRight=4;overflow=hidden;rotatable=0;points=[[0,0.5],[1,0.5]];portConstraint=eastwest;whiteSpace=wrap;html=1;" parent="lvTw6lGgkBzKPOZ7wGYp-11" vertex="1">
          <mxGeometry y="112" width="160" height="26" as="geometry" />
        </mxCell>
        <mxCell id="lvTw6lGgkBzKPOZ7wGYp-17" value="" style="endArrow=open;endFill=1;endSize=12;html=1;rounded=0;entryX=0.5;entryY=0;entryDx=0;entryDy=0;exitX=0.5;exitY=1;exitDx=0;exitDy=0;exitPerimeter=0;" parent="1" source="lvTw6lGgkBzKPOZ7wGYp-9" target="lvTw6lGgkBzKPOZ7wGYp-11" edge="1">
          <mxGeometry width="160" relative="1" as="geometry">
            <mxPoint x="250" y="540" as="sourcePoint" />
            <mxPoint x="540" y="690" as="targetPoint" />
          </mxGeometry>
        </mxCell>
        <mxCell id="lvTw6lGgkBzKPOZ7wGYp-20" value="[1..*] ticket" style="text;html=1;align=center;verticalAlign=middle;whiteSpace=wrap;rounded=0;" parent="1" vertex="1">
          <mxGeometry x="240" y="520" width="60" height="20" as="geometry" />
        </mxCell>
        <mxCell id="lvTw6lGgkBzKPOZ7wGYp-21" value="CinemaOwner" style="swimlane;fontStyle=1;align=center;verticalAlign=top;childLayout=stackLayout;horizontal=1;startSize=26;horizontalStack=0;resizeParent=1;resizeParentMax=0;resizeLast=0;collapsible=1;marginBottom=0;whiteSpace=wrap;html=1;" parent="1" vertex="1">
          <mxGeometry x="420" y="330" width="110" height="78" as="geometry" />
        </mxCell>
        <mxCell id="lvTw6lGgkBzKPOZ7wGYp-22" value="# name: string" style="text;strokeColor=none;fillColor=none;align=left;verticalAlign=top;spacingLeft=4;spacingRight=4;overflow=hidden;rotatable=0;points=[[0,0.5],[1,0.5]];portConstraint=eastwest;whiteSpace=wrap;html=1;" parent="lvTw6lGgkBzKPOZ7wGYp-21" vertex="1">
          <mxGeometry y="26" width="110" height="26" as="geometry" />
        </mxCell>
        <mxCell id="lvTw6lGgkBzKPOZ7wGYp-25" value="# surname: string" style="text;strokeColor=none;fillColor=none;align=left;verticalAlign=top;spacingLeft=4;spacingRight=4;overflow=hidden;rotatable=0;points=[[0,0.5],[1,0.5]];portConstraint=eastwest;whiteSpace=wrap;html=1;" parent="lvTw6lGgkBzKPOZ7wGYp-21" vertex="1">
          <mxGeometry y="52" width="110" height="26" as="geometry" />
        </mxCell>
        <mxCell id="lvTw6lGgkBzKPOZ7wGYp-29" value="" style="endArrow=none;html=1;edgeStyle=orthogonalEdgeStyle;rounded=0;entryX=0.5;entryY=0;entryDx=0;entryDy=0;" parent="1" target="lvTw6lGgkBzKPOZ7wGYp-21" edge="1">
          <mxGeometry relative="1" as="geometry">
            <mxPoint x="360" y="271" as="sourcePoint" />
            <mxPoint x="640" y="240" as="targetPoint" />
          </mxGeometry>
        </mxCell>
        <mxCell id="lvTw6lGgkBzKPOZ7wGYp-32" value="Cinema" style="swimlane;fontStyle=1;align=center;verticalAlign=top;childLayout=stackLayout;horizontal=1;startSize=26;horizontalStack=0;resizeParent=1;resizeParentMax=0;resizeLast=0;collapsible=1;marginBottom=0;whiteSpace=wrap;html=1;" parent="1" vertex="1">
          <mxGeometry x="730" y="330" width="140" height="138" as="geometry" />
        </mxCell>
        <mxCell id="lvTw6lGgkBzKPOZ7wGYp-33" value="# id: long" style="text;strokeColor=none;fillColor=none;align=left;verticalAlign=top;spacingLeft=4;spacingRight=4;overflow=hidden;rotatable=0;points=[[0,0.5],[1,0.5]];portConstraint=eastwest;whiteSpace=wrap;html=1;" parent="lvTw6lGgkBzKPOZ7wGYp-32" vertex="1">
          <mxGeometry y="26" width="140" height="26" as="geometry" />
        </mxCell>
        <mxCell id="lvTw6lGgkBzKPOZ7wGYp-36" value="# name: string" style="text;strokeColor=none;fillColor=none;align=left;verticalAlign=top;spacingLeft=4;spacingRight=4;overflow=hidden;rotatable=0;points=[[0,0.5],[1,0.5]];portConstraint=eastwest;whiteSpace=wrap;html=1;" parent="lvTw6lGgkBzKPOZ7wGYp-32" vertex="1">
          <mxGeometry y="52" width="140" height="26" as="geometry" />
        </mxCell>
        <mxCell id="lvTw6lGgkBzKPOZ7wGYp-37" value="# location: string" style="text;strokeColor=none;fillColor=none;align=left;verticalAlign=top;spacingLeft=4;spacingRight=4;overflow=hidden;rotatable=0;points=[[0,0.5],[1,0.5]];portConstraint=eastwest;whiteSpace=wrap;html=1;" parent="lvTw6lGgkBzKPOZ7wGYp-32" vertex="1">
          <mxGeometry y="78" width="140" height="26" as="geometry" />
        </mxCell>
        <mxCell id="lvTw6lGgkBzKPOZ7wGYp-34" value="" style="line;strokeWidth=1;fillColor=none;align=left;verticalAlign=middle;spacingTop=-1;spacingLeft=3;spacingRight=3;rotatable=0;labelPosition=right;points=[];portConstraint=eastwest;strokeColor=inherit;" parent="lvTw6lGgkBzKPOZ7wGYp-32" vertex="1">
          <mxGeometry y="104" width="140" height="8" as="geometry" />
        </mxCell>
        <mxCell id="lvTw6lGgkBzKPOZ7wGYp-35" value="+ totalIncome(): double" style="text;strokeColor=none;fillColor=none;align=left;verticalAlign=top;spacingLeft=4;spacingRight=4;overflow=hidden;rotatable=0;points=[[0,0.5],[1,0.5]];portConstraint=eastwest;whiteSpace=wrap;html=1;" parent="lvTw6lGgkBzKPOZ7wGYp-32" vertex="1">
          <mxGeometry y="112" width="140" height="26" as="geometry" />
        </mxCell>
        <mxCell id="lvTw6lGgkBzKPOZ7wGYp-39" value="" style="endArrow=open;endFill=1;endSize=12;html=1;rounded=0;exitX=0;exitY=0.5;exitDx=0;exitDy=0;entryX=1;entryY=0.5;entryDx=0;entryDy=0;" parent="1" source="lvTw6lGgkBzKPOZ7wGYp-36" target="lvTw6lGgkBzKPOZ7wGYp-25" edge="1">
          <mxGeometry width="160" relative="1" as="geometry">
            <mxPoint x="670" y="420" as="sourcePoint" />
            <mxPoint x="650" y="400" as="targetPoint" />
          </mxGeometry>
        </mxCell>
        <mxCell id="lvTw6lGgkBzKPOZ7wGYp-40" value="[1..1] owner" style="text;html=1;align=center;verticalAlign=middle;whiteSpace=wrap;rounded=0;" parent="1" vertex="1">
          <mxGeometry x="660" y="370" width="70" height="20" as="geometry" />
        </mxCell>
        <mxCell id="lvTw6lGgkBzKPOZ7wGYp-41" value="CinemaHall" style="swimlane;fontStyle=1;align=center;verticalAlign=top;childLayout=stackLayout;horizontal=1;startSize=26;horizontalStack=0;resizeParent=1;resizeParentMax=0;resizeLast=0;collapsible=1;marginBottom=0;whiteSpace=wrap;html=1;" parent="1" vertex="1">
          <mxGeometry x="1040" y="330" width="180" height="112" as="geometry" />
        </mxCell>
        <mxCell id="lvTw6lGgkBzKPOZ7wGYp-42" value="# id: int" style="text;strokeColor=none;fillColor=none;align=left;verticalAlign=top;spacingLeft=4;spacingRight=4;overflow=hidden;rotatable=0;points=[[0,0.5],[1,0.5]];portConstraint=eastwest;whiteSpace=wrap;html=1;" parent="lvTw6lGgkBzKPOZ7wGYp-41" vertex="1">
          <mxGeometry y="26" width="180" height="26" as="geometry" />
        </mxCell>
        <mxCell id="lvTw6lGgkBzKPOZ7wGYp-45" value="# name: string" style="text;strokeColor=none;fillColor=none;align=left;verticalAlign=top;spacingLeft=4;spacingRight=4;overflow=hidden;rotatable=0;points=[[0,0.5],[1,0.5]];portConstraint=eastwest;whiteSpace=wrap;html=1;" parent="lvTw6lGgkBzKPOZ7wGYp-41" vertex="1">
          <mxGeometry y="52" width="180" height="26" as="geometry" />
        </mxCell>
        <mxCell id="lvTw6lGgkBzKPOZ7wGYp-43" value="" style="line;strokeWidth=1;fillColor=none;align=left;verticalAlign=middle;spacingTop=-1;spacingLeft=3;spacingRight=3;rotatable=0;labelPosition=right;points=[];portConstraint=eastwest;strokeColor=inherit;" parent="lvTw6lGgkBzKPOZ7wGYp-41" vertex="1">
          <mxGeometry y="78" width="180" height="8" as="geometry" />
        </mxCell>
        <mxCell id="lvTw6lGgkBzKPOZ7wGYp-44" value="+ isConfigComplete(): boolean" style="text;strokeColor=none;fillColor=none;align=left;verticalAlign=top;spacingLeft=4;spacingRight=4;overflow=hidden;rotatable=0;points=[[0,0.5],[1,0.5]];portConstraint=eastwest;whiteSpace=wrap;html=1;" parent="lvTw6lGgkBzKPOZ7wGYp-41" vertex="1">
          <mxGeometry y="86" width="180" height="26" as="geometry" />
        </mxCell>
        <mxCell id="lvTw6lGgkBzKPOZ7wGYp-49" value="" style="endArrow=open;endFill=1;endSize=12;html=1;rounded=0;startArrow=open;startFill=0;startSize=12;exitX=1;exitY=0.5;exitDx=0;exitDy=0;entryX=0;entryY=0.5;entryDx=0;entryDy=0;" parent="1" source="lvTw6lGgkBzKPOZ7wGYp-36" target="lvTw6lGgkBzKPOZ7wGYp-45" edge="1">
          <mxGeometry width="160" relative="1" as="geometry">
            <mxPoint x="1050" y="560" as="sourcePoint" />
            <mxPoint x="1210" y="560" as="targetPoint" />
          </mxGeometry>
        </mxCell>
        <mxCell id="lvTw6lGgkBzKPOZ7wGYp-50" value="[1..1] cinema" style="text;html=1;align=center;verticalAlign=middle;whiteSpace=wrap;rounded=0;" parent="1" vertex="1">
          <mxGeometry x="890" y="370" width="80" height="20" as="geometry" />
        </mxCell>
        <mxCell id="lvTw6lGgkBzKPOZ7wGYp-51" value="[1..*] hall" style="text;html=1;align=center;verticalAlign=middle;whiteSpace=wrap;rounded=0;" parent="1" vertex="1">
          <mxGeometry x="970" y="400" width="70" height="20" as="geometry" />
        </mxCell>
        <mxCell id="lvTw6lGgkBzKPOZ7wGYp-52" value="SeatingRow" style="swimlane;fontStyle=1;align=center;verticalAlign=top;childLayout=stackLayout;horizontal=1;startSize=26;horizontalStack=0;resizeParent=1;resizeParentMax=0;resizeLast=0;collapsible=1;marginBottom=0;whiteSpace=wrap;html=1;" parent="1" vertex="1">
          <mxGeometry x="1030" y="610" width="200" height="104" as="geometry" />
        </mxCell>
        <mxCell id="lvTw6lGgkBzKPOZ7wGYp-56" value="# id: int" style="text;strokeColor=none;fillColor=none;align=left;verticalAlign=top;spacingLeft=4;spacingRight=4;overflow=hidden;rotatable=0;points=[[0,0.5],[1,0.5]];portConstraint=eastwest;whiteSpace=wrap;html=1;" parent="lvTw6lGgkBzKPOZ7wGYp-52" vertex="1">
          <mxGeometry y="26" width="200" height="26" as="geometry" />
        </mxCell>
        <mxCell id="lvTw6lGgkBzKPOZ7wGYp-53" value="# category: Category = PARQUET" style="text;strokeColor=none;fillColor=none;align=left;verticalAlign=top;spacingLeft=4;spacingRight=4;overflow=hidden;rotatable=0;points=[[0,0.5],[1,0.5]];portConstraint=eastwest;whiteSpace=wrap;html=1;" parent="lvTw6lGgkBzKPOZ7wGYp-52" vertex="1">
          <mxGeometry y="52" width="200" height="26" as="geometry" />
        </mxCell>
        <mxCell id="lvTw6lGgkBzKPOZ7wGYp-57" value="# rowNr: int" style="text;strokeColor=none;fillColor=none;align=left;verticalAlign=top;spacingLeft=4;spacingRight=4;overflow=hidden;rotatable=0;points=[[0,0.5],[1,0.5]];portConstraint=eastwest;whiteSpace=wrap;html=1;" parent="lvTw6lGgkBzKPOZ7wGYp-52" vertex="1">
          <mxGeometry y="78" width="200" height="26" as="geometry" />
        </mxCell>
        <mxCell id="lvTw6lGgkBzKPOZ7wGYp-58" value="" style="endArrow=open;endFill=1;endSize=12;html=1;rounded=0;startArrow=open;startFill=0;startSize=12;exitX=0.5;exitY=0;exitDx=0;exitDy=0;" parent="1" source="lvTw6lGgkBzKPOZ7wGYp-52" edge="1">
          <mxGeometry width="160" relative="1" as="geometry">
            <mxPoint x="1000" y="550" as="sourcePoint" />
            <mxPoint x="1130" y="470" as="targetPoint" />
          </mxGeometry>
        </mxCell>
        <mxCell id="lvTw6lGgkBzKPOZ7wGYp-59" value="[1..*] row" style="text;html=1;align=center;verticalAlign=middle;whiteSpace=wrap;rounded=0;" parent="1" vertex="1">
          <mxGeometry x="1060" y="590" width="70" height="20" as="geometry" />
        </mxCell>
        <mxCell id="lvTw6lGgkBzKPOZ7wGYp-60" value="[1..1] cinemahall" style="text;html=1;align=center;verticalAlign=middle;whiteSpace=wrap;rounded=0;" parent="1" vertex="1">
          <mxGeometry x="1130" y="468" width="110" height="20" as="geometry" />
        </mxCell>
        <mxCell id="lvTw6lGgkBzKPOZ7wGYp-61" value="Category" style="swimlane;fontStyle=1;align=center;verticalAlign=top;childLayout=stackLayout;horizontal=1;startSize=26;horizontalStack=0;resizeParent=1;resizeParentMax=0;resizeLast=0;collapsible=1;marginBottom=0;whiteSpace=wrap;html=1;" parent="1" vertex="1">
          <mxGeometry x="1075" y="748" width="110" height="104" as="geometry" />
        </mxCell>
        <mxCell id="lvTw6lGgkBzKPOZ7wGYp-62" value="- PARQUET" style="text;strokeColor=none;fillColor=none;align=left;verticalAlign=top;spacingLeft=4;spacingRight=4;overflow=hidden;rotatable=0;points=[[0,0.5],[1,0.5]];portConstraint=eastwest;whiteSpace=wrap;html=1;" parent="lvTw6lGgkBzKPOZ7wGYp-61" vertex="1">
          <mxGeometry y="26" width="110" height="26" as="geometry" />
        </mxCell>
        <mxCell id="lvTw6lGgkBzKPOZ7wGYp-65" value="- LOGE" style="text;strokeColor=none;fillColor=none;align=left;verticalAlign=top;spacingLeft=4;spacingRight=4;overflow=hidden;rotatable=0;points=[[0,0.5],[1,0.5]];portConstraint=eastwest;whiteSpace=wrap;html=1;" parent="lvTw6lGgkBzKPOZ7wGYp-61" vertex="1">
          <mxGeometry y="52" width="110" height="26" as="geometry" />
        </mxCell>
        <mxCell id="lvTw6lGgkBzKPOZ7wGYp-66" value="- LOGE_SERVICE" style="text;strokeColor=none;fillColor=none;align=left;verticalAlign=top;spacingLeft=4;spacingRight=4;overflow=hidden;rotatable=0;points=[[0,0.5],[1,0.5]];portConstraint=eastwest;whiteSpace=wrap;html=1;" parent="lvTw6lGgkBzKPOZ7wGYp-61" vertex="1">
          <mxGeometry y="78" width="110" height="26" as="geometry" />
        </mxCell>
        <mxCell id="lvTw6lGgkBzKPOZ7wGYp-69" value="" style="endArrow=none;html=1;edgeStyle=orthogonalEdgeStyle;rounded=0;exitX=1;exitY=0.5;exitDx=0;exitDy=0;entryX=1;entryY=0.5;entryDx=0;entryDy=0;" parent="1" source="lvTw6lGgkBzKPOZ7wGYp-65" target="lvTw6lGgkBzKPOZ7wGYp-53" edge="1">
          <mxGeometry relative="1" as="geometry">
            <mxPoint x="1240" y="810" as="sourcePoint" />
            <mxPoint x="1480" y="740" as="targetPoint" />
            <Array as="points">
              <mxPoint x="1270" y="815" />
              <mxPoint x="1270" y="675" />
            </Array>
          </mxGeometry>
        </mxCell>
        <mxCell id="lvTw6lGgkBzKPOZ7wGYp-72" value="Seat" style="swimlane;fontStyle=1;align=center;verticalAlign=top;childLayout=stackLayout;horizontal=1;startSize=26;horizontalStack=0;resizeParent=1;resizeParentMax=0;resizeLast=0;collapsible=1;marginBottom=0;whiteSpace=wrap;html=1;" parent="1" vertex="1">
          <mxGeometry x="605" y="610" width="110" height="78" as="geometry" />
        </mxCell>
        <mxCell id="lvTw6lGgkBzKPOZ7wGYp-73" value="# id: int" style="text;strokeColor=none;fillColor=none;align=left;verticalAlign=top;spacingLeft=4;spacingRight=4;overflow=hidden;rotatable=0;points=[[0,0.5],[1,0.5]];portConstraint=eastwest;whiteSpace=wrap;html=1;" parent="lvTw6lGgkBzKPOZ7wGYp-72" vertex="1">
          <mxGeometry y="26" width="110" height="26" as="geometry" />
        </mxCell>
        <mxCell id="lvTw6lGgkBzKPOZ7wGYp-76" value="# seatNumber: int" style="text;strokeColor=none;fillColor=none;align=left;verticalAlign=top;spacingLeft=4;spacingRight=4;overflow=hidden;rotatable=0;points=[[0,0.5],[1,0.5]];portConstraint=eastwest;whiteSpace=wrap;html=1;" parent="lvTw6lGgkBzKPOZ7wGYp-72" vertex="1">
          <mxGeometry y="52" width="110" height="26" as="geometry" />
        </mxCell>
        <mxCell id="lvTw6lGgkBzKPOZ7wGYp-77" value="" style="endArrow=open;endFill=1;endSize=12;html=1;rounded=0;startArrow=open;startFill=0;startSize=12;exitX=1;exitY=0.9;exitDx=0;exitDy=0;entryX=-0.002;entryY=0.904;entryDx=0;entryDy=0;exitPerimeter=0;entryPerimeter=0;" parent="1" source="lvTw6lGgkBzKPOZ7wGYp-73" target="lvTw6lGgkBzKPOZ7wGYp-56" edge="1">
          <mxGeometry width="160" relative="1" as="geometry">
            <mxPoint x="880" y="560" as="sourcePoint" />
            <mxPoint x="1030" y="560" as="targetPoint" />
          </mxGeometry>
        </mxCell>
        <mxCell id="lvTw6lGgkBzKPOZ7wGYp-78" value="[1..*] seats" style="text;html=1;align=center;verticalAlign=middle;whiteSpace=wrap;rounded=0;" parent="1" vertex="1">
          <mxGeometry x="750" y="639" width="70" height="20" as="geometry" />
        </mxCell>
        <mxCell id="lvTw6lGgkBzKPOZ7wGYp-79" value="[1..1] row" style="text;html=1;align=center;verticalAlign=middle;whiteSpace=wrap;rounded=0;" parent="1" vertex="1">
          <mxGeometry x="960" y="659" width="70" height="20" as="geometry" />
        </mxCell>
        <mxCell id="lvTw6lGgkBzKPOZ7wGYp-80" value="" style="endArrow=open;endFill=1;endSize=12;html=1;rounded=0;entryX=0;entryY=0.923;entryDx=0;entryDy=0;exitX=1.006;exitY=0.93;exitDx=0;exitDy=0;exitPerimeter=0;entryPerimeter=0;" parent="1" source="lvTw6lGgkBzKPOZ7wGYp-16" target="lvTw6lGgkBzKPOZ7wGYp-73" edge="1">
          <mxGeometry width="160" relative="1" as="geometry">
            <mxPoint x="520" y="585" as="sourcePoint" />
            <mxPoint x="520" y="675" as="targetPoint" />
          </mxGeometry>
        </mxCell>
        <mxCell id="lvTw6lGgkBzKPOZ7wGYp-81" value="[1..1] seat" style="text;html=1;align=center;verticalAlign=middle;whiteSpace=wrap;rounded=0;" parent="1" vertex="1">
          <mxGeometry x="320" y="639" width="60" height="20" as="geometry" />
        </mxCell>
        <mxCell id="lvTw6lGgkBzKPOZ7wGYp-82" value="Movie" style="swimlane;fontStyle=1;align=center;verticalAlign=top;childLayout=stackLayout;horizontal=1;startSize=26;horizontalStack=0;resizeParent=1;resizeParentMax=0;resizeLast=0;collapsible=1;marginBottom=0;whiteSpace=wrap;html=1;" parent="1" vertex="1">
          <mxGeometry x="175" y="840" width="130" height="156" as="geometry" />
        </mxCell>
        <mxCell id="lvTw6lGgkBzKPOZ7wGYp-83" value="# id: int" style="text;strokeColor=none;fillColor=none;align=left;verticalAlign=top;spacingLeft=4;spacingRight=4;overflow=hidden;rotatable=0;points=[[0,0.5],[1,0.5]];portConstraint=eastwest;whiteSpace=wrap;html=1;" parent="lvTw6lGgkBzKPOZ7wGYp-82" vertex="1">
          <mxGeometry y="26" width="130" height="26" as="geometry" />
        </mxCell>
        <mxCell id="lvTw6lGgkBzKPOZ7wGYp-86" value="# title: string" style="text;strokeColor=none;fillColor=none;align=left;verticalAlign=top;spacingLeft=4;spacingRight=4;overflow=hidden;rotatable=0;points=[[0,0.5],[1,0.5]];portConstraint=eastwest;whiteSpace=wrap;html=1;" parent="lvTw6lGgkBzKPOZ7wGYp-82" vertex="1">
          <mxGeometry y="52" width="130" height="26" as="geometry" />
        </mxCell>
        <mxCell id="lvTw6lGgkBzKPOZ7wGYp-88" value="# description: string" style="text;strokeColor=none;fillColor=none;align=left;verticalAlign=top;spacingLeft=4;spacingRight=4;overflow=hidden;rotatable=0;points=[[0,0.5],[1,0.5]];portConstraint=eastwest;whiteSpace=wrap;html=1;" parent="lvTw6lGgkBzKPOZ7wGYp-82" vertex="1">
          <mxGeometry y="78" width="130" height="26" as="geometry" />
        </mxCell>
        <mxCell id="lvTw6lGgkBzKPOZ7wGYp-89" value="# genre: string" style="text;strokeColor=none;fillColor=none;align=left;verticalAlign=top;spacingLeft=4;spacingRight=4;overflow=hidden;rotatable=0;points=[[0,0.5],[1,0.5]];portConstraint=eastwest;whiteSpace=wrap;html=1;" parent="lvTw6lGgkBzKPOZ7wGYp-82" vertex="1">
          <mxGeometry y="104" width="130" height="26" as="geometry" />
        </mxCell>
        <mxCell id="lvTw6lGgkBzKPOZ7wGYp-87" value="# length: double = 0.0" style="text;strokeColor=none;fillColor=none;align=left;verticalAlign=top;spacingLeft=4;spacingRight=4;overflow=hidden;rotatable=0;points=[[0,0.5],[1,0.5]];portConstraint=eastwest;whiteSpace=wrap;html=1;" parent="lvTw6lGgkBzKPOZ7wGYp-82" vertex="1">
          <mxGeometry y="130" width="130" height="26" as="geometry" />
        </mxCell>
        <mxCell id="lvTw6lGgkBzKPOZ7wGYp-90" value="Screening" style="swimlane;fontStyle=1;align=center;verticalAlign=top;childLayout=stackLayout;horizontal=1;startSize=26;horizontalStack=0;resizeParent=1;resizeParentMax=0;resizeLast=0;collapsible=1;marginBottom=0;whiteSpace=wrap;html=1;" parent="1" vertex="1">
          <mxGeometry x="585" y="840" width="150" height="216" as="geometry" />
        </mxCell>
        <mxCell id="lvTw6lGgkBzKPOZ7wGYp-91" value="# id: int" style="text;strokeColor=none;fillColor=none;align=left;verticalAlign=top;spacingLeft=4;spacingRight=4;overflow=hidden;rotatable=0;points=[[0,0.5],[1,0.5]];portConstraint=eastwest;whiteSpace=wrap;html=1;" parent="lvTw6lGgkBzKPOZ7wGYp-90" vertex="1">
          <mxGeometry y="26" width="150" height="26" as="geometry" />
        </mxCell>
        <mxCell id="lvTw6lGgkBzKPOZ7wGYp-94" value="# date: date" style="text;strokeColor=none;fillColor=none;align=left;verticalAlign=top;spacingLeft=4;spacingRight=4;overflow=hidden;rotatable=0;points=[[0,0.5],[1,0.5]];portConstraint=eastwest;whiteSpace=wrap;html=1;" parent="lvTw6lGgkBzKPOZ7wGYp-90" vertex="1">
          <mxGeometry y="52" width="150" height="26" as="geometry" />
        </mxCell>
        <mxCell id="lvTw6lGgkBzKPOZ7wGYp-95" value="# startTime: double = 0.0" style="text;strokeColor=none;fillColor=none;align=left;verticalAlign=top;spacingLeft=4;spacingRight=4;overflow=hidden;rotatable=0;points=[[0,0.5],[1,0.5]];portConstraint=eastwest;whiteSpace=wrap;html=1;" parent="lvTw6lGgkBzKPOZ7wGYp-90" vertex="1">
          <mxGeometry y="78" width="150" height="26" as="geometry" />
        </mxCell>
        <mxCell id="lvTw6lGgkBzKPOZ7wGYp-96" value="# endTime: double = 0.0" style="text;strokeColor=none;fillColor=none;align=left;verticalAlign=top;spacingLeft=4;spacingRight=4;overflow=hidden;rotatable=0;points=[[0,0.5],[1,0.5]];portConstraint=eastwest;whiteSpace=wrap;html=1;" parent="lvTw6lGgkBzKPOZ7wGYp-90" vertex="1">
          <mxGeometry y="104" width="150" height="26" as="geometry" />
        </mxCell>
        <mxCell id="lvTw6lGgkBzKPOZ7wGYp-92" value="" style="line;strokeWidth=1;fillColor=none;align=left;verticalAlign=middle;spacingTop=-1;spacingLeft=3;spacingRight=3;rotatable=0;labelPosition=right;points=[];portConstraint=eastwest;strokeColor=inherit;" parent="lvTw6lGgkBzKPOZ7wGYp-90" vertex="1">
          <mxGeometry y="130" width="150" height="8" as="geometry" />
        </mxCell>
        <mxCell id="lvTw6lGgkBzKPOZ7wGYp-93" value="+ hasStarted()" style="text;strokeColor=none;fillColor=none;align=left;verticalAlign=top;spacingLeft=4;spacingRight=4;overflow=hidden;rotatable=0;points=[[0,0.5],[1,0.5]];portConstraint=eastwest;whiteSpace=wrap;html=1;" parent="lvTw6lGgkBzKPOZ7wGYp-90" vertex="1">
          <mxGeometry y="138" width="150" height="26" as="geometry" />
        </mxCell>
        <mxCell id="lvTw6lGgkBzKPOZ7wGYp-97" value="+ numReservation()" style="text;strokeColor=none;fillColor=none;align=left;verticalAlign=top;spacingLeft=4;spacingRight=4;overflow=hidden;rotatable=0;points=[[0,0.5],[1,0.5]];portConstraint=eastwest;whiteSpace=wrap;html=1;" parent="lvTw6lGgkBzKPOZ7wGYp-90" vertex="1">
          <mxGeometry y="164" width="150" height="26" as="geometry" />
        </mxCell>
        <mxCell id="lvTw6lGgkBzKPOZ7wGYp-98" value="+ numBookings()" style="text;strokeColor=none;fillColor=none;align=left;verticalAlign=top;spacingLeft=4;spacingRight=4;overflow=hidden;rotatable=0;points=[[0,0.5],[1,0.5]];portConstraint=eastwest;whiteSpace=wrap;html=1;" parent="lvTw6lGgkBzKPOZ7wGYp-90" vertex="1">
          <mxGeometry y="190" width="150" height="26" as="geometry" />
        </mxCell>
        <mxCell id="lvTw6lGgkBzKPOZ7wGYp-99" value="" style="endArrow=open;endFill=1;endSize=12;html=1;rounded=0;entryX=0.5;entryY=0;entryDx=0;entryDy=0;exitX=0.5;exitY=1;exitDx=0;exitDy=0;" parent="1" source="lvTw6lGgkBzKPOZ7wGYp-11" target="lvTw6lGgkBzKPOZ7wGYp-90" edge="1">
          <mxGeometry width="160" relative="1" as="geometry">
            <mxPoint x="240" y="750" as="sourcePoint" />
            <mxPoint x="579" y="780" as="targetPoint" />
            <Array as="points">
              <mxPoint x="240" y="800" />
              <mxPoint x="660" y="800" />
            </Array>
          </mxGeometry>
        </mxCell>
        <mxCell id="lvTw6lGgkBzKPOZ7wGYp-100" value="" style="endArrow=open;endFill=1;endSize=12;html=1;rounded=0;exitX=0;exitY=0.5;exitDx=0;exitDy=0;entryX=1;entryY=0.5;entryDx=0;entryDy=0;" parent="1" source="lvTw6lGgkBzKPOZ7wGYp-95" target="lvTw6lGgkBzKPOZ7wGYp-88" edge="1">
          <mxGeometry width="160" relative="1" as="geometry">
            <mxPoint x="390" y="770" as="sourcePoint" />
            <mxPoint x="380" y="950" as="targetPoint" />
          </mxGeometry>
        </mxCell>
        <mxCell id="lvTw6lGgkBzKPOZ7wGYp-101" value="" style="endArrow=open;endFill=1;endSize=12;html=1;rounded=0;entryX=1;entryY=0.5;entryDx=0;entryDy=0;exitX=1;exitY=0.5;exitDx=0;exitDy=0;" parent="1" source="lvTw6lGgkBzKPOZ7wGYp-95" target="lvTw6lGgkBzKPOZ7wGYp-45" edge="1">
          <mxGeometry width="160" relative="1" as="geometry">
            <mxPoint x="1000.5" y="1070" as="sourcePoint" />
            <mxPoint x="1259.5" y="1070" as="targetPoint" />
            <Array as="points">
              <mxPoint x="1310" y="931" />
              <mxPoint x="1310" y="395" />
            </Array>
          </mxGeometry>
        </mxCell>
        <mxCell id="lvTw6lGgkBzKPOZ7wGYp-102" value="[1..1] hall" style="text;html=1;align=center;verticalAlign=middle;whiteSpace=wrap;rounded=0;" parent="1" vertex="1">
          <mxGeometry x="740" y="908" width="60" height="20" as="geometry" />
        </mxCell>
        <mxCell id="lvTw6lGgkBzKPOZ7wGYp-103" value="[1..1] movie" style="text;html=1;align=center;verticalAlign=middle;whiteSpace=wrap;rounded=0;" parent="1" vertex="1">
          <mxGeometry x="510" y="908" width="70" height="20" as="geometry" />
        </mxCell>
        <mxCell id="lvTw6lGgkBzKPOZ7wGYp-104" value="[1..1] screening" style="text;html=1;align=center;verticalAlign=middle;whiteSpace=wrap;rounded=0;" parent="1" vertex="1">
          <mxGeometry x="240" y="780" width="90" height="20" as="geometry" />
        </mxCell>
      </root>
    </mxGraphModel>
  </diagram>
  <diagram id="xhAOGX8HBjKY1b5gRMIL" name="Anwendungsfalldiagramm">
    <mxGraphModel dx="1290" dy="638" grid="1" gridSize="10" guides="1" tooltips="1" connect="1" arrows="1" fold="1" page="1" pageScale="1" pageWidth="827" pageHeight="1169" math="0" shadow="0">
      <root>
        <mxCell id="0" />
        <mxCell id="1" parent="0" />
        <mxCell id="awKSxgrqzm91K5g5gDCn-2" value="Kunde" style="shape=umlActor;verticalLabelPosition=bottom;verticalAlign=top;html=1;" vertex="1" parent="1">
          <mxGeometry x="60" y="310" width="30" height="60" as="geometry" />
        </mxCell>
        <mxCell id="awKSxgrqzm91K5g5gDCn-4" value="Filmaufführung buchen" style="ellipse;whiteSpace=wrap;html=1;" vertex="1" parent="1">
          <mxGeometry x="224" y="240" width="140" height="70" as="geometry" />
        </mxCell>
        <mxCell id="awKSxgrqzm91K5g5gDCn-5" value="Reservierung" style="ellipse;whiteSpace=wrap;html=1;" vertex="1" parent="1">
          <mxGeometry x="428" y="240" width="140" height="70" as="geometry" />
        </mxCell>
        <mxCell id="awKSxgrqzm91K5g5gDCn-6" value="Reservierung in Buchung umwandeln" style="ellipse;whiteSpace=wrap;html=1;" vertex="1" parent="1">
          <mxGeometry x="423" y="355" width="150" height="80" as="geometry" />
        </mxCell>
        <mxCell id="awKSxgrqzm91K5g5gDCn-7" value="Reservierung stornieren" style="ellipse;whiteSpace=wrap;html=1;" vertex="1" parent="1">
          <mxGeometry x="634" y="240" width="140" height="70" as="geometry" />
        </mxCell>
        <mxCell id="awKSxgrqzm91K5g5gDCn-8" value="Einnahmen einsehen" style="ellipse;whiteSpace=wrap;html=1;" vertex="1" parent="1">
          <mxGeometry x="254" y="445" width="140" height="70" as="geometry" />
        </mxCell>
        <mxCell id="awKSxgrqzm91K5g5gDCn-9" value="Kinosaal bearb&lt;span style=&quot;color: rgba(0, 0, 0, 0); font-family: monospace; font-size: 0px; text-align: start; text-wrap: nowrap;&quot;&gt;%3CmxGraphModel%3E%3Croot%3E%3CmxCell%20id%3D%220%22%2F%3E%3CmxCell%20id%3D%221%22%20parent%3D%220%22%2F%3E%3CmxCell%20id%3D%222%22%20value%3D%22Einnahmen%20einsehen%22%20style%3D%22ellipse%3BwhiteSpace%3Dwrap%3Bhtml%3D1%3B%22%20vertex%3D%221%22%20parent%3D%221%22%3E%3CmxGeometry%20x%3D%22500%22%20y%3D%22390%22%20width%3D%22140%22%20height%3D%2270%22%20as%3D%22geometry%22%2F%3E%3C%2FmxCell%3E%3C%2Froot%3E%3C%2FmxGraphModel%3E&lt;/span&gt;eiten" style="ellipse;whiteSpace=wrap;html=1;" vertex="1" parent="1">
          <mxGeometry x="359" y="575" width="140" height="70" as="geometry" />
        </mxCell>
        <mxCell id="awKSxgrqzm91K5g5gDCn-10" value="Kategorien erstellen/bearbeiten" style="ellipse;whiteSpace=wrap;html=1;" vertex="1" parent="1">
          <mxGeometry x="604" y="565" width="140" height="70" as="geometry" />
        </mxCell>
        <mxCell id="awKSxgrqzm91K5g5gDCn-11" value="KinoBesitzer" style="shape=umlActor;verticalLabelPosition=bottom;verticalAlign=top;html=1;" vertex="1" parent="1">
          <mxGeometry x="84" y="555" width="30" height="60" as="geometry" />
        </mxCell>
        <mxCell id="awKSxgrqzm91K5g5gDCn-13" value="Freigabe bei vollständiger konfiguration" style="ellipse;whiteSpace=wrap;html=1;" vertex="1" parent="1">
          <mxGeometry x="484" y="455" width="150" height="80" as="geometry" />
        </mxCell>
        <mxCell id="RBLsjZQM2aaDc2OZcRfX-8" value="Use" style="endArrow=open;endSize=12;dashed=1;html=1;rounded=0;entryX=0.5;entryY=1;entryDx=0;entryDy=0;exitX=0.5;exitY=0;exitDx=0;exitDy=0;" edge="1" parent="1" source="awKSxgrqzm91K5g5gDCn-6" target="awKSxgrqzm91K5g5gDCn-5">
          <mxGeometry width="160" relative="1" as="geometry">
            <mxPoint x="344" y="495" as="sourcePoint" />
            <mxPoint x="504" y="495" as="targetPoint" />
          </mxGeometry>
        </mxCell>
        <mxCell id="RBLsjZQM2aaDc2OZcRfX-9" value="Use" style="endArrow=open;endSize=12;dashed=1;html=1;rounded=0;entryX=1;entryY=0.5;entryDx=0;entryDy=0;exitX=0;exitY=0.5;exitDx=0;exitDy=0;" edge="1" parent="1" source="awKSxgrqzm91K5g5gDCn-7" target="awKSxgrqzm91K5g5gDCn-5">
          <mxGeometry width="160" relative="1" as="geometry">
            <mxPoint x="344" y="495" as="sourcePoint" />
            <mxPoint x="504" y="495" as="targetPoint" />
          </mxGeometry>
        </mxCell>
        <mxCell id="RBLsjZQM2aaDc2OZcRfX-10" value="" style="endArrow=block;dashed=1;endFill=0;endSize=12;html=1;rounded=0;exitX=0;exitY=0.5;exitDx=0;exitDy=0;entryX=1;entryY=0.5;entryDx=0;entryDy=0;" edge="1" parent="1" source="awKSxgrqzm91K5g5gDCn-10" target="awKSxgrqzm91K5g5gDCn-9">
          <mxGeometry width="160" relative="1" as="geometry">
            <mxPoint x="344" y="495" as="sourcePoint" />
            <mxPoint x="504" y="495" as="targetPoint" />
          </mxGeometry>
        </mxCell>
        <mxCell id="RBLsjZQM2aaDc2OZcRfX-11" value="" style="endArrow=block;dashed=1;endFill=0;endSize=12;html=1;rounded=0;entryX=0.5;entryY=0;entryDx=0;entryDy=0;exitX=0;exitY=1;exitDx=0;exitDy=0;" edge="1" parent="1" source="awKSxgrqzm91K5g5gDCn-13" target="awKSxgrqzm91K5g5gDCn-9">
          <mxGeometry width="160" relative="1" as="geometry">
            <mxPoint x="344" y="495" as="sourcePoint" />
            <mxPoint x="504" y="495" as="targetPoint" />
          </mxGeometry>
        </mxCell>
        <mxCell id="RBLsjZQM2aaDc2OZcRfX-28" value="" style="endArrow=none;html=1;rounded=0;entryX=0;entryY=0.5;entryDx=0;entryDy=0;" edge="1" parent="1" target="awKSxgrqzm91K5g5gDCn-8">
          <mxGeometry width="50" height="50" relative="1" as="geometry">
            <mxPoint x="110" y="550" as="sourcePoint" />
            <mxPoint x="260" y="500" as="targetPoint" />
          </mxGeometry>
        </mxCell>
        <mxCell id="RBLsjZQM2aaDc2OZcRfX-29" value="" style="endArrow=none;html=1;rounded=0;entryX=0;entryY=0.5;entryDx=0;entryDy=0;" edge="1" parent="1" target="awKSxgrqzm91K5g5gDCn-9">
          <mxGeometry width="50" height="50" relative="1" as="geometry">
            <mxPoint x="120" y="590" as="sourcePoint" />
            <mxPoint x="260" y="500" as="targetPoint" />
          </mxGeometry>
        </mxCell>
        <mxCell id="RBLsjZQM2aaDc2OZcRfX-30" value="Cinema Management Software" style="shape=umlFrame;whiteSpace=wrap;html=1;pointerEvents=0;width=180;height=30;" vertex="1" parent="1">
          <mxGeometry x="40" y="200" width="750" height="470" as="geometry" />
        </mxCell>
        <mxCell id="gXamm0TPy3znJH8HkDSJ-2" value="" style="endArrow=none;html=1;rounded=0;entryX=0;entryY=1;entryDx=0;entryDy=0;exitX=0.653;exitY=0.63;exitDx=0;exitDy=0;exitPerimeter=0;" edge="1" parent="1" source="awKSxgrqzm91K5g5gDCn-2" target="awKSxgrqzm91K5g5gDCn-4">
          <mxGeometry width="50" height="50" relative="1" as="geometry">
            <mxPoint x="450" y="470" as="sourcePoint" />
            <mxPoint x="500" y="420" as="targetPoint" />
          </mxGeometry>
        </mxCell>
        <mxCell id="gXamm0TPy3znJH8HkDSJ-3" value="" style="endArrow=none;html=1;rounded=0;entryX=0;entryY=1;entryDx=0;entryDy=0;" edge="1" parent="1" target="awKSxgrqzm91K5g5gDCn-5">
          <mxGeometry width="50" height="50" relative="1" as="geometry">
            <mxPoint x="90" y="350" as="sourcePoint" />
            <mxPoint x="500" y="420" as="targetPoint" />
          </mxGeometry>
        </mxCell>
      </root>
    </mxGraphModel>
  </diagram>
  <diagram name="Komponentendiagramm" id="KH6CJhMq0UlY0PgXPY_X">
    <mxGraphModel dx="1290" dy="638" grid="1" gridSize="10" guides="1" tooltips="1" connect="1" arrows="1" fold="1" page="1" pageScale="1" pageWidth="827" pageHeight="1169" math="0" shadow="0">
      <root>
        <mxCell id="0" />
        <mxCell id="1" parent="0" />
        <mxCell id="-PSbv1FXcQhK0JFiI9Yf-47" value="" style="rounded=0;orthogonalLoop=1;jettySize=auto;html=1;endArrow=halfCircle;endFill=0;endSize=6;strokeWidth=1;sketch=0;exitX=1;exitY=0.5;exitDx=0;exitDy=0;" parent="1" source="-PSbv1FXcQhK0JFiI9Yf-18" edge="1">
          <mxGeometry relative="1" as="geometry">
            <mxPoint x="300" y="190" as="sourcePoint" />
            <mxPoint x="300" y="185" as="targetPoint" />
            <Array as="points" />
          </mxGeometry>
        </mxCell>
        <mxCell id="-PSbv1FXcQhK0JFiI9Yf-46" value="" style="rounded=0;orthogonalLoop=1;jettySize=auto;html=1;endArrow=halfCircle;endFill=0;endSize=6;strokeWidth=1;sketch=0;exitX=1;exitY=0.5;exitDx=0;exitDy=0;" parent="1" source="-PSbv1FXcQhK0JFiI9Yf-17" edge="1">
          <mxGeometry relative="1" as="geometry">
            <mxPoint x="290" y="180" as="sourcePoint" />
            <mxPoint x="300" y="185" as="targetPoint" />
          </mxGeometry>
        </mxCell>
        <mxCell id="-PSbv1FXcQhK0JFiI9Yf-44" value="" style="rounded=0;orthogonalLoop=1;jettySize=auto;html=1;endArrow=halfCircle;endFill=0;endSize=6;strokeWidth=1;sketch=0;exitX=1;exitY=0.5;exitDx=0;exitDy=0;" parent="1" source="-PSbv1FXcQhK0JFiI9Yf-1" edge="1">
          <mxGeometry relative="1" as="geometry">
            <mxPoint x="280" y="170" as="sourcePoint" />
            <mxPoint x="300" y="185" as="targetPoint" />
          </mxGeometry>
        </mxCell>
        <mxCell id="-PSbv1FXcQhK0JFiI9Yf-31" value="" style="ellipse;shape=cloud;whiteSpace=wrap;html=1;" parent="1" vertex="1">
          <mxGeometry x="300" y="277.73" width="270" height="100" as="geometry" />
        </mxCell>
        <mxCell id="-PSbv1FXcQhK0JFiI9Yf-2" value="ApplicationService" style="html=1;whiteSpace=wrap;" parent="1" vertex="1">
          <mxGeometry x="360" y="160" width="160" height="50" as="geometry" />
        </mxCell>
        <mxCell id="-PSbv1FXcQhK0JFiI9Yf-4" value="PersistenceService" style="html=1;whiteSpace=wrap;" parent="1" vertex="1">
          <mxGeometry x="300.37" y="447.73" width="110" height="50" as="geometry" />
        </mxCell>
        <mxCell id="-PSbv1FXcQhK0JFiI9Yf-5" value="StatisticsService" style="html=1;whiteSpace=wrap;" parent="1" vertex="1">
          <mxGeometry x="467.87" y="447.73" width="110" height="50" as="geometry" />
        </mxCell>
        <mxCell id="-PSbv1FXcQhK0JFiI9Yf-7" value="" style="shape=doubleArrow;direction=south;whiteSpace=wrap;html=1;" parent="1" vertex="1">
          <mxGeometry x="510.37" y="377.73" width="25" height="50" as="geometry" />
        </mxCell>
        <mxCell id="-PSbv1FXcQhK0JFiI9Yf-9" value="MariaDB" style="image;aspect=fixed;perimeter=ellipsePerimeter;html=1;align=center;shadow=0;dashed=0;spacingTop=3;image=img/lib/active_directory/databases.svg;" parent="1" vertex="1">
          <mxGeometry x="330.37" y="548.73" width="50" height="49" as="geometry" />
        </mxCell>
        <mxCell id="-PSbv1FXcQhK0JFiI9Yf-10" value="" style="image;aspect=fixed;perimeter=ellipsePerimeter;html=1;align=center;shadow=0;dashed=0;spacingTop=3;image=img/lib/active_directory/documents.svg;" parent="1" vertex="1">
          <mxGeometry x="479.62" y="547.73" width="16.5" height="25" as="geometry" />
        </mxCell>
        <mxCell id="-PSbv1FXcQhK0JFiI9Yf-11" value="" style="image;aspect=fixed;perimeter=ellipsePerimeter;html=1;align=center;shadow=0;dashed=0;spacingTop=3;image=img/lib/active_directory/documents.svg;" parent="1" vertex="1">
          <mxGeometry x="496.12" y="572.73" width="16.5" height="25" as="geometry" />
        </mxCell>
        <mxCell id="-PSbv1FXcQhK0JFiI9Yf-12" value="" style="image;aspect=fixed;perimeter=ellipsePerimeter;html=1;align=center;shadow=0;dashed=0;spacingTop=3;image=img/lib/active_directory/documents.svg;" parent="1" vertex="1">
          <mxGeometry x="516.37" y="572.73" width="16.5" height="25" as="geometry" />
        </mxCell>
        <mxCell id="-PSbv1FXcQhK0JFiI9Yf-13" value="" style="image;aspect=fixed;perimeter=ellipsePerimeter;html=1;align=center;shadow=0;dashed=0;spacingTop=3;image=img/lib/active_directory/documents.svg;" parent="1" vertex="1">
          <mxGeometry x="509.62" y="547.73" width="16.5" height="25" as="geometry" />
        </mxCell>
        <mxCell id="-PSbv1FXcQhK0JFiI9Yf-14" value="" style="image;aspect=fixed;perimeter=ellipsePerimeter;html=1;align=center;shadow=0;dashed=0;spacingTop=3;image=img/lib/active_directory/documents.svg;" parent="1" vertex="1">
          <mxGeometry x="549.62" y="557.73" width="16.5" height="25" as="geometry" />
        </mxCell>
        <mxCell id="-PSbv1FXcQhK0JFiI9Yf-15" value="" style="image;aspect=fixed;perimeter=ellipsePerimeter;html=1;align=center;shadow=0;dashed=0;spacingTop=3;image=img/lib/active_directory/documents.svg;" parent="1" vertex="1">
          <mxGeometry x="539.62" y="582.73" width="16.5" height="25" as="geometry" />
        </mxCell>
        <mxCell id="-PSbv1FXcQhK0JFiI9Yf-16" value="" style="image;aspect=fixed;perimeter=ellipsePerimeter;html=1;align=center;shadow=0;dashed=0;spacingTop=3;image=img/lib/active_directory/documents.svg;" parent="1" vertex="1">
          <mxGeometry x="533.12" y="547.73" width="16.5" height="25" as="geometry" />
        </mxCell>
        <mxCell id="-PSbv1FXcQhK0JFiI9Yf-19" value="" style="rounded=0;whiteSpace=wrap;html=1;" parent="1" vertex="1">
          <mxGeometry x="80" y="140" width="150" height="90" as="geometry" />
        </mxCell>
        <mxCell id="-PSbv1FXcQhK0JFiI9Yf-1" value="Client" style="html=1;whiteSpace=wrap;" parent="1" vertex="1">
          <mxGeometry x="90" y="150" width="110" height="50" as="geometry" />
        </mxCell>
        <mxCell id="-PSbv1FXcQhK0JFiI9Yf-17" value="Client" style="html=1;whiteSpace=wrap;" parent="1" vertex="1">
          <mxGeometry x="100" y="160" width="110" height="50" as="geometry" />
        </mxCell>
        <mxCell id="-PSbv1FXcQhK0JFiI9Yf-18" value="Client" style="html=1;whiteSpace=wrap;" parent="1" vertex="1">
          <mxGeometry x="110" y="170" width="110" height="50" as="geometry" />
        </mxCell>
        <mxCell id="-PSbv1FXcQhK0JFiI9Yf-20" value="React Framework Typescript" style="text;html=1;align=center;verticalAlign=middle;whiteSpace=wrap;rounded=0;" parent="1" vertex="1">
          <mxGeometry x="80" y="240" width="150" height="30" as="geometry" />
        </mxCell>
        <mxCell id="-PSbv1FXcQhK0JFiI9Yf-32" value="" style="shape=cylinder3;whiteSpace=wrap;html=1;boundedLbl=1;backgroundOutline=1;size=15;rotation=90;" parent="1" vertex="1">
          <mxGeometry x="430" y="240" width="20" height="175.46" as="geometry" />
        </mxCell>
        <mxCell id="-PSbv1FXcQhK0JFiI9Yf-33" value="RabbitMQ" style="text;html=1;align=center;verticalAlign=middle;whiteSpace=wrap;rounded=0;" parent="1" vertex="1">
          <mxGeometry x="410" y="370" width="60" height="30" as="geometry" />
        </mxCell>
        <mxCell id="-PSbv1FXcQhK0JFiI9Yf-34" value="" style="endArrow=none;html=1;rounded=0;entryX=0.5;entryY=1;entryDx=0;entryDy=0;" parent="1" target="-PSbv1FXcQhK0JFiI9Yf-5" edge="1">
          <mxGeometry width="50" height="50" relative="1" as="geometry">
            <mxPoint x="522.87" y="537.73" as="sourcePoint" />
            <mxPoint x="547.87" y="397.73" as="targetPoint" />
          </mxGeometry>
        </mxCell>
        <mxCell id="-PSbv1FXcQhK0JFiI9Yf-36" value="" style="shape=doubleArrow;direction=south;whiteSpace=wrap;html=1;" parent="1" vertex="1">
          <mxGeometry x="342.87" y="377.73" width="25" height="50" as="geometry" />
        </mxCell>
        <mxCell id="-PSbv1FXcQhK0JFiI9Yf-37" value="" style="endArrow=none;html=1;rounded=0;entryX=0.5;entryY=1;entryDx=0;entryDy=0;" parent="1" target="-PSbv1FXcQhK0JFiI9Yf-4" edge="1">
          <mxGeometry width="50" height="50" relative="1" as="geometry">
            <mxPoint x="355.03" y="537.73" as="sourcePoint" />
            <mxPoint x="372.87" y="517.73" as="targetPoint" />
          </mxGeometry>
        </mxCell>
        <mxCell id="-PSbv1FXcQhK0JFiI9Yf-38" value="CRUD" style="text;html=1;align=center;verticalAlign=middle;whiteSpace=wrap;rounded=0;" parent="1" vertex="1">
          <mxGeometry x="280" y="387.73" width="60" height="30" as="geometry" />
        </mxCell>
        <mxCell id="-PSbv1FXcQhK0JFiI9Yf-39" value="CRU" style="text;html=1;align=center;verticalAlign=middle;whiteSpace=wrap;rounded=0;" parent="1" vertex="1">
          <mxGeometry x="539.62" y="387.73" width="60" height="30" as="geometry" />
        </mxCell>
        <mxCell id="-PSbv1FXcQhK0JFiI9Yf-40" value="Channels" style="text;html=1;align=center;verticalAlign=middle;whiteSpace=wrap;rounded=0;" parent="1" vertex="1">
          <mxGeometry x="410" y="312.73" width="60" height="30" as="geometry" />
        </mxCell>
        <mxCell id="-PSbv1FXcQhK0JFiI9Yf-45" value="" style="rounded=0;orthogonalLoop=1;jettySize=auto;html=1;endArrow=oval;endFill=0;sketch=0;sourcePerimeterSpacing=0;targetPerimeterSpacing=0;endSize=10;exitX=0;exitY=0.5;exitDx=0;exitDy=0;" parent="1" source="-PSbv1FXcQhK0JFiI9Yf-2" edge="1">
          <mxGeometry relative="1" as="geometry">
            <mxPoint x="280" y="295" as="sourcePoint" />
            <mxPoint x="300" y="185" as="targetPoint" />
          </mxGeometry>
        </mxCell>
        <mxCell id="-PSbv1FXcQhK0JFiI9Yf-51" value="Neo4j" style="text;html=1;align=center;verticalAlign=middle;whiteSpace=wrap;rounded=0;" parent="1" vertex="1">
          <mxGeometry x="496.12" y="607.73" width="60" height="30" as="geometry" />
        </mxCell>
        <mxCell id="-PSbv1FXcQhK0JFiI9Yf-52" value="AuthenticationService" style="html=1;whiteSpace=wrap;" parent="1" vertex="1">
          <mxGeometry x="88.38" y="302.73" width="133.25" height="50" as="geometry" />
        </mxCell>
        <mxCell id="-PSbv1FXcQhK0JFiI9Yf-53" value="" style="rounded=0;orthogonalLoop=1;jettySize=auto;html=1;endArrow=halfCircle;endFill=0;endSize=6;strokeWidth=1;sketch=0;exitX=1;exitY=0.5;exitDx=0;exitDy=0;entryX=0.257;entryY=0.451;entryDx=0;entryDy=0;entryPerimeter=0;" parent="1" source="-PSbv1FXcQhK0JFiI9Yf-52" target="-PSbv1FXcQhK0JFiI9Yf-55" edge="1">
          <mxGeometry relative="1" as="geometry">
            <mxPoint x="550" y="265" as="sourcePoint" />
            <mxPoint x="260" y="328" as="targetPoint" />
          </mxGeometry>
        </mxCell>
        <mxCell id="-PSbv1FXcQhK0JFiI9Yf-54" value="" style="rounded=0;orthogonalLoop=1;jettySize=auto;html=1;endArrow=oval;endFill=0;sketch=0;sourcePerimeterSpacing=0;targetPerimeterSpacing=0;endSize=10;exitX=0.5;exitY=1;exitDx=0;exitDy=0;exitPerimeter=0;entryX=1.029;entryY=0.727;entryDx=0;entryDy=0;entryPerimeter=0;" parent="1" source="-PSbv1FXcQhK0JFiI9Yf-32" target="-PSbv1FXcQhK0JFiI9Yf-55" edge="1">
          <mxGeometry relative="1" as="geometry">
            <mxPoint x="590" y="280" as="sourcePoint" />
            <mxPoint x="280" y="328" as="targetPoint" />
          </mxGeometry>
        </mxCell>
        <mxCell id="-PSbv1FXcQhK0JFiI9Yf-55" value="" style="ellipse;whiteSpace=wrap;html=1;align=center;aspect=fixed;fillColor=none;strokeColor=none;resizable=0;perimeter=centerPerimeter;rotatable=0;allowArrows=0;points=[];outlineConnect=1;" parent="1" vertex="1">
          <mxGeometry x="280" y="322.73" width="10" height="10" as="geometry" />
        </mxCell>
        <mxCell id="-PSbv1FXcQhK0JFiI9Yf-56" value="" style="rounded=0;orthogonalLoop=1;jettySize=auto;html=1;endArrow=halfCircle;endFill=0;endSize=6;strokeWidth=1;sketch=0;exitX=0.5;exitY=1;exitDx=0;exitDy=0;" parent="1" source="-PSbv1FXcQhK0JFiI9Yf-2" edge="1">
          <mxGeometry relative="1" as="geometry">
            <mxPoint x="450" y="230" as="sourcePoint" />
            <mxPoint x="440" y="250" as="targetPoint" />
          </mxGeometry>
        </mxCell>
        <mxCell id="-PSbv1FXcQhK0JFiI9Yf-59" value="DemoService" style="html=1;whiteSpace=wrap;" parent="1" vertex="1">
          <mxGeometry x="630" y="302.73" width="110" height="50" as="geometry" />
        </mxCell>
        <mxCell id="-PSbv1FXcQhK0JFiI9Yf-69" value="" style="rounded=0;orthogonalLoop=1;jettySize=auto;html=1;endArrow=halfCircle;endFill=0;endSize=6;strokeWidth=1;sketch=0;exitX=0;exitY=0.5;exitDx=0;exitDy=0;" parent="1" source="-PSbv1FXcQhK0JFiI9Yf-59" target="-PSbv1FXcQhK0JFiI9Yf-71" edge="1">
          <mxGeometry relative="1" as="geometry">
            <mxPoint x="630" y="355" as="sourcePoint" />
          </mxGeometry>
        </mxCell>
        <mxCell id="-PSbv1FXcQhK0JFiI9Yf-70" value="" style="rounded=0;orthogonalLoop=1;jettySize=auto;html=1;endArrow=oval;endFill=0;sketch=0;sourcePerimeterSpacing=0;targetPerimeterSpacing=0;endSize=10;exitX=0.5;exitY=0;exitDx=0;exitDy=0;exitPerimeter=0;" parent="1" source="-PSbv1FXcQhK0JFiI9Yf-32" target="-PSbv1FXcQhK0JFiI9Yf-71" edge="1">
          <mxGeometry relative="1" as="geometry">
            <mxPoint x="590" y="355" as="sourcePoint" />
          </mxGeometry>
        </mxCell>
        <mxCell id="-PSbv1FXcQhK0JFiI9Yf-71" value="" style="ellipse;whiteSpace=wrap;html=1;align=center;aspect=fixed;fillColor=none;strokeColor=none;resizable=0;perimeter=centerPerimeter;rotatable=0;allowArrows=0;points=[];outlineConnect=1;" parent="1" vertex="1">
          <mxGeometry x="589.62" y="322.73" width="10" height="10" as="geometry" />
        </mxCell>
        <mxCell id="-PSbv1FXcQhK0JFiI9Yf-57" value="" style="rounded=0;orthogonalLoop=1;jettySize=auto;html=1;endArrow=oval;endFill=0;sketch=0;sourcePerimeterSpacing=0;targetPerimeterSpacing=0;endSize=10;exitX=0;exitY=0.5;exitDx=0;exitDy=0;exitPerimeter=0;" parent="1" source="-PSbv1FXcQhK0JFiI9Yf-32" edge="1">
          <mxGeometry relative="1" as="geometry">
            <mxPoint x="460" y="330" as="sourcePoint" />
            <mxPoint x="440" y="250" as="targetPoint" />
          </mxGeometry>
        </mxCell>
      </root>
    </mxGraphModel>
  </diagram>
</mxfile>
